<svg xmlns="http://www.w3.org/2000/svg" viewBox="0 0 900 400" width="100%" height="100%"><style>
        .line { stroke: var(--line-color, #ffffff); stroke-width: 2; fill: none; }
        .dashed { stroke: var(--line-color, #ffffff); stroke-width: 2; fill: none; stroke-dasharray: 5,5; }
        .arrow { fill: var(--line-color, #ffffff); }
        .text { fill: var(--text-color, #ffffff); font-family: sans-serif; font-size: 14px; text-anchor: middle; alignment-baseline: middle; }
        .text-bold { fill: var(--text-color, #ffffff); font-family: sans-serif; font-size: 16px; font-weight: bold; text-anchor: middle; alignment-baseline: middle; }
        .box { fill: var(--box-bg, rgba(255,255,255,0.05)); stroke: var(--box-border, #ffffff); stroke-width: 2; rx: 10; }
        .box-inner { fill: none; stroke: var(--box-border, #ffffff); stroke-width: 1; rx: 5; }
        .label { fill: var(--text-color, #ffffff); font-family: sans-serif; font-size: 12px; text-anchor: middle; }
    </style><defs><marker id="arrow" viewBox="0 0 10 10" refX="10" refY="5" markerWidth="6" markerHeight="6" orient="auto-start-reverse"><path d="M 0 0 L 10 5 L 0 10 z" class="arrow" /></marker><marker id="arrow-start" viewBox="0 0 10 10" refX="0" refY="5" markerWidth="6" markerHeight="6" orient="auto-start-reverse"><path d="M 10 0 L 0 5 L 10 10 z" class="arrow" /></marker></defs><rect x="50" y="50" width="250" height="300" class="box" /><text x="175" y="70" class="text-bold">client</text><rect x="70" y="100" width="100" height="60" class="box-inner" /><text x="120" y="125" class="text">Andrew</text><text x="120" y="145" class="text">benchmark</text><rect x="180" y="100" width="100" height="90" class="box-inner" /><text x="230" y="115" class="label">relay</text><rect x="190" y="130" width="80" height="50" class="box-inner" /><text x="230" y="150" class="text">replication</text><text x="230" y="165" class="text">library</text><rect x="70" y="250" width="210" height="60" class="box-inner" /><text x="175" y="280" class="text">kernel NFS client</text><line x1="120" y1="160" x2="120" y2="250" class="line" marker-start="url(#arrow-start)" marker-end="url(#arrow)" /><line x1="230" y1="190" x2="230" y2="250" class="line" marker-start="url(#arrow-start)" marker-end="url(#arrow)" /><rect x="400" y="50" width="200" height="300" class="box" /><text x="500" y="70" class="text-bold">replica 0</text><rect x="420" y="90" width="160" height="120" class="box-inner" /><text x="500" y="110" class="text">snfsd</text><rect x="440" y="130" width="120" height="60" class="box-inner" /><text x="500" y="155" class="text">replication</text><text x="500" y="175" class="text">library</text><rect x="420" y="250" width="160" height="60" class="box-inner" /><text x="500" y="280" class="text">kernel VM</text><line x1="500" y1="210" x2="500" y2="250" class="line" marker-end="url(#arrow)" /><rect x="650" y="50" width="200" height="300" class="box" /><text x="750" y="70" class="text-bold">replica n</text><rect x="670" y="90" width="160" height="120" class="box-inner" /><text x="750" y="110" class="text">snfsd</text><rect x="690" y="130" width="120" height="60" class="box-inner" /><text x="750" y="155" class="text">replication</text><text x="750" y="175" class="text">library</text><rect x="670" y="250" width="160" height="60" class="box-inner" /><text x="750" y="280" class="text">kernel VM</text><line x1="750" y1="210" x2="750" y2="250" class="line" marker-end="url(#arrow)" /><text x="625" y="200" class="text-bold">. . .</text><line x1="270" y1="150" x2="440" y2="150" class="line" marker-start="url(#arrow-start)" marker-end="url(#arrow)" /><line x1="270" y1="165" x2="690" y2="165" class="line" marker-start="url(#arrow-start)" marker-end="url(#arrow)" /></svg>