<svg xmlns="http://www.w3.org/2000/svg" viewBox="0 0 800 750" width="100%" height="100%"><style>
        .line { stroke: var(--line-color, #ffffff); stroke-width: 2; fill: none; }
        .dashed { stroke: var(--line-color, #ffffff); stroke-width: 2; fill: none; stroke-dasharray: 5,5; }
        .arrow { fill: var(--line-color, #ffffff); }
        .text { fill: var(--text-color, #ffffff); font-family: sans-serif; font-size: 14px; text-anchor: middle; alignment-baseline: middle; }
        .text-sm { fill: var(--text-color, #ffffff); font-family: sans-serif; font-size: 12px; text-anchor: middle; alignment-baseline: middle; }
        .text-bg { fill: var(--bg-color, #111111); }
        .box { fill: var(--box-bg, rgba(255,255,255,0.1)); stroke: var(--box-border, #ffffff); stroke-width: 2; rx: 5; }
        .note { fill: rgba(255, 255, 255, 0.15); stroke: #ffffff; stroke-width: 1; rx: 5; }
    </style><defs><marker id="arrow" viewBox="0 0 10 10" refX="10" refY="5" markerWidth="6" markerHeight="6" orient="auto-start-reverse"><path d="M 0 0 L 10 5 L 0 10 z" class="arrow" /></marker></defs><line x1="100" y1="50" x2="100" y2="700" class="line" /><rect x="80" y="20" width="40" height="30" class="box" /><text x="100" y="35" class="text">C</text><line x1="250" y1="50" x2="250" y2="700" class="line" /><rect x="230" y="20" width="40" height="30" class="box" /><text x="250" y="35" class="text">0</text><line x1="400" y1="50" x2="400" y2="700" class="line" /><rect x="380" y="20" width="40" height="30" class="box" /><text x="400" y="35" class="text">1</text><line x1="550" y1="50" x2="550" y2="700" class="line" /><rect x="530" y="20" width="40" height="30" class="box" /><text x="550" y="35" class="text">2</text><line x1="700" y1="50" x2="700" y2="700" class="line dashed" /><rect x="680" y="20" width="40" height="30" class="box" /><text x="700" y="35" class="text">3</text><rect x="640" y="70" width="120" height="30" class="note" /><text x="700" y="85" class="text-sm">X (Inactive/Faulty)</text><rect x="350" y="115" width="100" height="30" class="note" /><text x="400" y="130" class="text">request</text><line x1="100" y1="160" x2="250" y2="160" class="line" marker-end="url(#arrow)" /><rect x="350" y="185" width="100" height="30" class="note" /><text x="400" y="200" class="text">pre-prepare</text><line x1="250" y1="230" x2="400" y2="230" class="line" marker-end="url(#arrow)" /><line x1="250" y1="250" x2="550" y2="250" class="line" marker-end="url(#arrow)" /><line x1="250" y1="270" x2="700" y2="270" class="line" marker-end="url(#arrow)" /><rect x="350" y="295" width="100" height="30" class="note" /><text x="400" y="310" class="text">prepare</text><line x1="400" y1="340" x2="250" y2="340" class="line" marker-end="url(#arrow)" /><line x1="400" y1="360" x2="550" y2="360" class="line" marker-end="url(#arrow)" /><line x1="400" y1="380" x2="700" y2="380" class="line" marker-end="url(#arrow)" /><line x1="550" y1="400" x2="250" y2="400" class="line" marker-end="url(#arrow)" /><line x1="550" y1="420" x2="400" y2="420" class="line" marker-end="url(#arrow)" /><line x1="550" y1="440" x2="700" y2="440" class="line" marker-end="url(#arrow)" /><rect x="350" y="465" width="100" height="30" class="note" /><text x="400" y="480" class="text">commit</text><line x1="250" y1="510" x2="400" y2="510" class="line" marker-end="url(#arrow)" /><line x1="250" y1="525" x2="550" y2="525" class="line" marker-end="url(#arrow)" /><line x1="250" y1="540" x2="700" y2="540" class="line" marker-end="url(#arrow)" /><line x1="400" y1="555" x2="250" y2="555" class="line" marker-end="url(#arrow)" /><line x1="400" y1="570" x2="550" y2="570" class="line" marker-end="url(#arrow)" /><line x1="400" y1="585" x2="700" y2="585" class="line" marker-end="url(#arrow)" /><line x1="550" y1="600" x2="250" y2="600" class="line" marker-end="url(#arrow)" /><line x1="550" y1="615" x2="400" y2="615" class="line" marker-end="url(#arrow)" /><line x1="550" y1="630" x2="700" y2="630" class="line" marker-end="url(#arrow)" /><rect x="350" y="655" width="100" height="30" class="note" /><text x="400" y="670" class="text">reply</text><line x1="250" y1="700" x2="100" y2="700" class="line" marker-end="url(#arrow)" /><line x1="400" y1="720" x2="100" y2="720" class="line" marker-end="url(#arrow)" /><line x1="550" y1="740" x2="100" y2="740" class="line" marker-end="url(#arrow)" /></svg>